<svg width="750" height="176" version="1.1" xmlns="http://www.w3.org/2000/svg" desc="Created with imagetracer.js version 1.2.6" ><path fill="rgb(238,244,254)" stroke="rgb(238,244,254)" stroke-width="1" opacity="1" d="M 121.5 20 L 122 132.5 L 121 132.5 L 121.5 20 Z " /><path fill="rgb(238,244,254)" stroke="rgb(238,244,254)" stroke-width="1" opacity="1" d="M 55.5 24 L 60 24.5 L 55.5 25 L 55.5 24 Z " /><path fill="rgb(238,244,254)" stroke="rgb(238,244,254)" stroke-width="1" opacity="1" d="M 68.5 24 L 73 24.5 L 68.5 25 L 68.5 24 Z " /><path fill="rgb(238,244,254)" stroke="rgb(238,244,254)" stroke-width="1" opacity="1" d="M 28.5 34 L 27.5 36 L 28.5 34 Z " /><path fill="rgb(238,244,254)" stroke="rgb(238,244,254)" stroke-width="1" opacity="1" d="M 103.5 37 L 104.5 39 L 103.5 37 Z " /><path fill="rgb(238,244,254)" stroke="rgb(238,244,254)" stroke-width="1" opacity="1" d="M 23.5 38 L 18.5 44 L 23.5 38 Z " /><path fill="rgb(238,244,254)" stroke="rgb(238,244,254)" stroke-width="1" opacity="1" d="M 106.5 40 L 109.5 44 L 106.5 40 Z " /><path fill="rgb(238,244,254)" stroke="rgb(238,244,254)" stroke-width="1" opacity="1" d="M 16.5 46 L 15.5 48 L 16.5 46 Z " /><path fill="rgb(238,244,254)" stroke="rgb(238,244,254)" stroke-width="1" opacity="1" d="M 107.5 46 L 103.5 51 L 107.5 46 Z " /><path fill="rgb(238,244,254)" stroke="rgb(238,244,254)" stroke-width="1" opacity="1" d="M 62.5 49 L 68 49.5 L 62.5 50 L 62.5 49 Z " /><path fill="rgb(238,244,254)" stroke="rgb(238,244,254)" stroke-width="1" opacity="1" d="M 275.5 49 L 278 49.5 L 275.5 50 L 275.5 49 Z " /><path fill="rgb(238,244,254)" stroke="rgb(238,244,254)" stroke-width="1" opacity="1" d="M 80.5 53 L 81.5 55 L 80.5 53 Z " /><path fill="rgb(238,244,254)" stroke="rgb(238,244,254)" stroke-width="1" opacity="1" d="M 154.5 54 L 153.5 56 L 154.5 54 Z " /><path fill="rgb(238,244,254)" stroke="rgb(238,244,254)" stroke-width="1" opacity="1" d="M 97.5 55 L 93.5 60 L 97.5 55 Z " /><path fill="rgb(238,244,254)" stroke="rgb(238,244,254)" stroke-width="1" opacity="1" d="M 295.5 56 L 297.5 59 L 295.5 56 Z " /><path fill="rgb(238,244,254)" stroke="rgb(238,244,254)" stroke-width="1" opacity="1" d="M 392.5 56 L 393.5 58 L 392.5 56 Z " /><path fill="rgb(238,244,254)" stroke="rgb(238,244,254)" stroke-width="1" opacity="1" d="M 199.5 57 L 200.5 59 L 199.5 57 Z " /><path fill="rgb(238,244,254)" stroke="rgb(238,244,254)" stroke-width="1" opacity="1" d="M 239.5 57 L 237.5 60 L 239.5 57 Z " /><path fill="rgb(238,244,254)" stroke="rgb(238,244,254)" stroke-width="1" opacity="1" d="M 334.5 59 L 329.5 65 L 334.5 59 Z " /><path fill="rgb(238,244,254)" stroke="rgb(238,244,254)" stroke-width="1" opacity="1" d="M 396.5 59 L 398.5 62 L 396.5 59 Z " /><path fill="rgb(238,244,254)" stroke="rgb(238,244,254)" stroke-width="1" opacity="1" d="M 681.5 59 L 682.5 61 L 681.5 59 Z " /><path fill="rgb(238,244,254)" stroke="rgb(238,244,254)" stroke-width="1" opacity="1" d="M 302.5 63 L 304.5 66 L 302.5 63 Z " /><path fill="rgb(238,244,254)" stroke="rgb(238,244,254)" stroke-width="1" opacity="1" d="M 401.5 65 L 402.5 67 L 401.5 65 Z " /><path fill="rgb(238,244,254)" stroke="rgb(238,244,254)" stroke-width="1" opacity="1" d="M 305.5 67 L 306.5 69 L 305.5 67 Z " /><path fill="rgb(238,244,254)" stroke="rgb(238,244,254)" stroke-width="1" opacity="1" d="M 327.5 67 L 326.5 69 L 327.5 67 Z " /><path fill="rgb(238,244,254)" stroke="rgb(238,244,254)" stroke-width="1" opacity="1" d="M 229.5 68 L 228.5 70 L 229.5 68 Z " /><path fill="rgb(238,244,254)" stroke="rgb(238,244,254)" stroke-width="1" opacity="1" d="M 403.5 68 L 404.5 70 L 403.5 68 Z " /><path fill="rgb(238,244,254)" stroke="rgb(238,244,254)" stroke-width="1" opacity="1" d="M 258.5 72 L 257.5 74 L 258.5 72 Z " /><path fill="rgb(238,244,254)" stroke="rgb(238,244,254)" stroke-width="1" opacity="1" d="M 354.5 73 L 352.5 76 L 354.5 73 Z " /><path fill="rgb(238,244,254)" stroke="rgb(238,244,254)" stroke-width="1" opacity="1" d="M 376.5 73 L 378.5 76 L 376.5 73 Z " /><path fill="rgb(238,244,254)" stroke="rgb(238,244,254)" stroke-width="1" opacity="1" d="M 36.5 75 L 37 83.5 L 36 83.5 L 36.5 75 Z " /><path fill="rgb(238,244,254)" stroke="rgb(238,244,254)" stroke-width="1" opacity="1" d="M 657.5 75 L 661.5 80 L 657.5 75 Z " /><path fill="rgb(238,244,254)" stroke="rgb(238,244,254)" stroke-width="1" opacity="1" d="M 175.5 76 L 176.5 78 L 175.5 76 Z " /><path fill="rgb(238,244,254)" stroke="rgb(238,244,254)" stroke-width="1" opacity="1" d="M 154.5 79 L 153.5 81 L 154.5 79 Z " /><path fill="rgb(238,244,254)" stroke="rgb(238,244,254)" stroke-width="1" opacity="1" d="M 177.5 79 L 179 81.5 L 178 81.5 L 177.5 79 Z " /><path fill="rgb(238,244,254)" stroke="rgb(238,244,254)" stroke-width="1" opacity="1" d="M 179.5 83 L 180 85.5 L 179 85.5 L 179.5 83 Z " /><path fill="rgb(238,244,254)" stroke="rgb(238,244,254)" stroke-width="1" opacity="1" d="M 209.5 84 L 210 132.5 L 209 132.5 L 209.5 84 Z " /><path fill="rgb(238,244,254)" stroke="rgb(238,244,254)" stroke-width="1" opacity="1" d="M 409.5 85 L 410 88.5 L 409 88.5 L 409.5 85 Z " /><path fill="rgb(238,244,254)" stroke="rgb(238,244,254)" stroke-width="1" opacity="1" d="M 583.5 88 L 584 90.5 L 583 90.5 L 583.5 88 Z " /><path fill="rgb(238,244,254)" stroke="rgb(238,244,254)" stroke-width="1" opacity="1" d="M 664.5 90 L 665 92.5 L 664 92.5 L 664.5 90 Z " /><path fill="rgb(238,244,254)" stroke="rgb(238,244,254)" stroke-width="1" opacity="1" d="M 409.5 94 L 410 96.5 L 409 96.5 L 409.5 94 Z " /><path fill="rgb(238,244,254)" stroke="rgb(238,244,254)" stroke-width="1" opacity="1" d="M 90.5 97 L 85.5 103 L 90.5 97 Z " /><path fill="rgb(238,244,254)" stroke="rgb(238,244,254)" stroke-width="1" opacity="1" d="M 92.5 98 L 94.5 101 L 92.5 98 Z " /><path fill="rgb(238,244,254)" stroke="rgb(238,244,254)" stroke-width="1" opacity="1" d="M 10.5 102 L 12 104.5 L 10 103.5 L 10.5 102 Z " /><path fill="rgb(238,244,254)" stroke="rgb(238,244,254)" stroke-width="1" opacity="1" d="M 254.5 103 L 255.5 105 L 254.5 103 Z " /><path fill="rgb(238,244,254)" stroke="rgb(238,244,254)" stroke-width="1" opacity="1" d="M 291.5 104 L 295.5 109 L 291.5 104 Z " /><path fill="rgb(238,244,254)" stroke="rgb(238,244,254)" stroke-width="1" opacity="1" d="M 352.5 104 L 356.5 109 L 352.5 104 Z " /><path fill="rgb(238,244,254)" stroke="rgb(238,244,254)" stroke-width="1" opacity="1" d="M 289.5 105 L 288.5 107 L 289.5 105 Z " /><path fill="rgb(238,244,254)" stroke="rgb(238,244,254)" stroke-width="1" opacity="1" d="M 389.5 105 L 400.5 117 L 389.5 105 Z " /><path fill="rgb(238,244,254)" stroke="rgb(238,244,254)" stroke-width="1" opacity="1" d="M 635.5 105 L 637.5 108 L 635.5 105 Z " /><path fill="rgb(238,244,254)" stroke="rgb(238,244,254)" stroke-width="1" opacity="1" d="M 732.5 105 L 735.5 109 L 732.5 105 Z " /><path fill="rgb(238,244,254)" stroke="rgb(238,244,254)" stroke-width="1" opacity="1" d="M 385.5 106 L 384.5 108 L 385.5 106 Z " /><path fill="rgb(238,244,254)" stroke="rgb(238,244,254)" stroke-width="1" opacity="1" d="M 102.5 107 L 105.5 111 L 102.5 107 Z " /><path fill="rgb(238,244,254)" stroke="rgb(238,244,254)" stroke-width="1" opacity="1" d="M 258.5 107 L 259.5 109 L 258.5 107 Z " /><path fill="rgb(238,244,254)" stroke="rgb(238,244,254)" stroke-width="1" opacity="1" d="M 707.5 107 L 706.5 109 L 707.5 107 Z " /><path fill="rgb(238,244,254)" stroke="rgb(238,244,254)" stroke-width="1" opacity="1" d="M 61.5 109 L 67 109.5 L 61.5 110 L 61.5 109 Z " /><path fill="rgb(238,244,254)" stroke="rgb(238,244,254)" stroke-width="1" opacity="1" d="M 14.5 110 L 16.5 113 L 14.5 110 Z " /><path fill="rgb(238,244,254)" stroke="rgb(238,244,254)" stroke-width="1" opacity="1" d="M 268.5 111 L 275 111.5 L 268.5 112 L 268.5 111 Z " /><path fill="rgb(238,244,254)" stroke="rgb(238,244,254)" stroke-width="1" opacity="1" d="M 365.5 111 L 372 111.5 L 365.5 112 L 365.5 111 Z " /><path fill="rgb(238,244,254)" stroke="rgb(238,244,254)" stroke-width="1" opacity="1" d="M 17.5 114 L 25.5 123 L 17.5 114 Z " /><path fill="rgb(238,244,254)" stroke="rgb(238,244,254)" stroke-width="1" opacity="1" d="M 108.5 116 L 103.5 122 L 108.5 116 Z " /><path fill="rgb(238,244,254)" stroke="rgb(238,244,254)" stroke-width="1" opacity="1" d="M 491.5 116 L 492.5 118 L 491.5 116 Z " /><path fill="rgb(238,244,254)" stroke="rgb(238,244,254)" stroke-width="1" opacity="1" d="M 231.5 117 L 236.5 123 L 231.5 117 Z " /><path fill="rgb(238,244,254)" stroke="rgb(238,244,254)" stroke-width="1" opacity="1" d="M 305.5 121 L 302.5 125 L 305.5 121 Z " /><path fill="rgb(238,244,254)" stroke="rgb(238,244,254)" stroke-width="1" opacity="1" d="M 336.5 124 L 337.5 126 L 336.5 124 Z " /><path fill="rgb(238,244,254)" stroke="rgb(238,244,254)" stroke-width="1" opacity="1" d="M 399.5 124 L 398.5 126 L 399.5 124 Z " /><path fill="rgb(238,244,254)" stroke="rgb(238,244,254)" stroke-width="1" opacity="1" d="M 499.5 124 L 500.5 126 L 499.5 124 Z " /><path fill="rgb(238,244,254)" stroke="rgb(238,244,254)" stroke-width="1" opacity="1" d="M 30.5 125 L 31.5 127 L 30.5 125 Z " /><path fill="rgb(238,244,254)" stroke="rgb(238,244,254)" stroke-width="1" opacity="1" d="M 706.5 127 L 707.5 129 L 706.5 127 Z " /><path fill="rgb(238,244,254)" stroke="rgb(238,244,254)" stroke-width="1" opacity="1" d="M 634.5 128 L 635.5 130 L 634.5 128 Z " /><path fill="rgb(238,244,254)" stroke="rgb(238,244,254)" stroke-width="1" opacity="1" d="M 49.5 133 L 52 133.5 L 49.5 134 L 49.5 133 Z " /><path fill="rgb(238,244,254)" stroke="rgb(238,244,254)" stroke-width="1" opacity="1" d="M 55.5 134 L 61 134.5 L 55.5 135 L 55.5 134 Z " /><path fill="rgb(238,244,254)" stroke="rgb(238,244,254)" stroke-width="1" opacity="1" d="M 69.5 134 L 72 134.5 L 69.5 135 L 69.5 134 Z " /><path fill="rgb(254,255,255)" stroke="rgb(254,255,255)" stroke-width="1" opacity="1" d="M 514.5 26 L 515 90.5 L 519 101.5 L 517 100.5 L 514 90.5 L 514.5 26 Z " /><path fill="rgb(254,255,255)" stroke="rgb(254,255,255)" stroke-width="1" opacity="1" d="M 739.5 26 L 739 27.5 L 739 37.5 L 738 38.5 L 738 49.5 L 737 50.5 L 737 61.5 L 736 62.5 L 736 73.5 L 735 74.5 L 735 84.5 L 734 85.5 L 733.5 94 L 733 85.5 L 734 84.5 L 734 74.5 L 735 73.5 L 738 27.5 L 739.5 26 Z " /><path fill="rgb(254,255,255)" stroke="rgb(254,255,255)" stroke-width="1" opacity="1" d="M 584.5 27 L 585 87.5 L 584 87.5 L 584.5 27 Z " /><path fill="rgb(254,255,255)" stroke="rgb(254,255,255)" stroke-width="1" opacity="1" d="M 630.5 50 L 631 56.5 L 630 56.5 L 630.5 50 Z " /><path fill="rgb(254,255,255)" stroke="rgb(254,255,255)" stroke-width="1" opacity="1" d="M 677.5 55 L 680.5 59 L 677.5 55 Z " /><path fill="rgb(254,255,255)" stroke="rgb(254,255,255)" stroke-width="1" opacity="1" d="M 682.5 59 Q 690.7 66.3 694 78.5 Q 696.8 87.2 695 100.5 Q 692.1 114.6 683.5 123 L 683 121.5 Q 689.1 116.6 692 108.5 L 694 100.5 L 694 82.5 L 689 68.5 L 683 61.5 L 682.5 59 Z " /><path fill="rgb(254,255,255)" stroke="rgb(254,255,255)" stroke-width="1" opacity="1" d="M 399.5 62 L 401.5 65 L 399.5 62 Z " /><path fill="rgb(254,255,255)" stroke="rgb(254,255,255)" stroke-width="1" opacity="1" d="M 639.5 74 L 637.5 77 L 639.5 74 Z " /><path fill="rgb(254,255,255)" stroke="rgb(254,255,255)" stroke-width="1" opacity="1" d="M 352.5 76 L 351.5 78 L 352.5 76 Z " /><path fill="rgb(254,255,255)" stroke="rgb(254,255,255)" stroke-width="1" opacity="1" d="M 467.5 78 L 468 100.5 L 467 100.5 L 467.5 78 Z " /><path fill="rgb(254,255,255)" stroke="rgb(254,255,255)" stroke-width="1" opacity="1" d="M 635.5 78 L 634 80.5 L 632.5 85 L 632 82.5 L 635.5 78 Z " /><path fill="rgb(254,255,255)" stroke="rgb(254,255,255)" stroke-width="1" opacity="1" d="M 409.5 82 L 410 84.5 L 409 84.5 L 409.5 82 Z " /><path fill="rgb(254,255,255)" stroke="rgb(254,255,255)" stroke-width="1" opacity="1" d="M 312.5 85 L 313 89.5 L 312 89.5 L 312.5 85 Z " /><path fill="rgb(254,255,255)" stroke="rgb(254,255,255)" stroke-width="1" opacity="1" d="M 631.5 86 L 632 96.5 L 631 96.5 L 631.5 86 Z " /><path fill="rgb(254,255,255)" stroke="rgb(254,255,255)" stroke-width="1" opacity="1" d="M 583.5 91 L 584 96.5 L 583 96.5 L 583.5 91 Z " /><path fill="rgb(254,255,255)" stroke="rgb(254,255,255)" stroke-width="1" opacity="1" d="M 312.5 92 L 313 97.5 L 312 97.5 L 312.5 92 Z " /><path fill="rgb(254,255,255)" stroke="rgb(254,255,255)" stroke-width="1" opacity="1" d="M 582.5 98 L 583 101.5 L 582 101.5 L 582.5 98 Z " /><path fill="rgb(254,255,255)" stroke="rgb(254,255,255)" stroke-width="1" opacity="1" d="M 632.5 98 L 636 104.5 L 633 102.5 L 632.5 98 Z " /><path fill="rgb(254,255,255)" stroke="rgb(254,255,255)" stroke-width="1" opacity="1" d="M 519.5 103 L 521.5 106 L 519.5 103 Z " /><path fill="rgb(254,255,255)" stroke="rgb(254,255,255)" stroke-width="1" opacity="1" d="M 733.5 105 L 737 108.5 L 740 117.5 L 738 125.5 L 734.5 130 L 734 128.5 L 737 125.5 L 739 117.5 L 738 112.5 L 733.5 105 Z " /><path fill="rgb(254,255,255)" stroke="rgb(254,255,255)" stroke-width="1" opacity="1" d="M 580.5 106 L 581 107.5 L 578.5 112 L 579 110.5 L 580.5 106 Z " /><path fill="rgb(254,255,255)" stroke="rgb(254,255,255)" stroke-width="1" opacity="1" d="M 577.5 113 L 577 114.5 L 569.5 124 L 574 118.5 L 577.5 113 Z " /><path fill="rgb(254,255,255)" stroke="rgb(254,255,255)" stroke-width="1" opacity="1" d="M 401.5 117 L 403.5 120 L 401.5 117 Z " /><path fill="rgb(254,255,255)" stroke="rgb(254,255,255)" stroke-width="1" opacity="1" d="M 403.5 121 L 401.5 124 L 403.5 121 Z " /><path fill="rgb(254,255,255)" stroke="rgb(254,255,255)" stroke-width="1" opacity="1" d="M 681.5 123 L 678.5 127 L 681.5 123 Z " /><path fill="rgb(254,255,255)" stroke="rgb(254,255,255)" stroke-width="1" opacity="1" d="M 566.5 125 L 565.5 127 L 566.5 125 Z " /><path fill="rgb(254,255,255)" stroke="rgb(254,255,255)" stroke-width="1" opacity="1" d="M 631.5 127 L 632 161.5 L 631 161.5 L 631.5 127 Z " /><path fill="rgb(254,255,255)" stroke="rgb(254,255,255)" stroke-width="1" opacity="1" d="M 676.5 127 L 675.5 129 L 676.5 127 Z " /><path fill="rgb(254,255,255)" stroke="rgb(254,255,255)" stroke-width="1" opacity="1" d="M 732.5 130 L 731.5 132 L 732.5 130 Z " /><path fill="rgb(255,255,255)" stroke="rgb(255,255,255)" stroke-width="1" opacity="1" d="M 0 0 L 749.5 0 L 750 0.5 L 750 176 L 0.5 176 L 0 175.5 L 0 0 Z M 121 20 L 121 133 L 122 133 L 151 133 L 151 88 L 155 79 L 163 74 Q 171 73 175 76 L 177 79 L 180 87 L 180 133 L 210 133 L 210 85 L 209 84 L 209 76 Q 207 65 201 59 Q 194 52 184 49 Q 164 47 155 54 L 151 57 L 151 20 L 121 20 Z M 56 24 L 38 29 L 24 38 Q 14 46 9 59 L 6 70 L 6 79 L 5 80 L 8 99 L 17 115 L 32 127 L 46 133 L 56 135 Q 88 137 104 122 L 110 115 L 91 97 Q 84 105 73 109 L 59 109 L 48 104 Q 40 98 37 88 L 37 72 L 42 61 Q 48 53 59 50 Q 71 48 78 52 Q 86 55 91 62 L 104 51 L 110 44 Q 102 33 89 28 L 73 24 L 56 24 Z M 483 26 L 483 92 L 484 93 L 485 104 L 491 117 L 504 128 L 515 133 L 525 135 L 549 134 Q 561 131 570 124 L 580 111 L 584 97 L 584 89 L 585 88 L 585 28 L 584 26 L 553 26 L 553 94 L 549 103 L 540 109 Q 528 111 523 106 L 517 99 L 515 91 L 515 26 L 483 26 Z M 704 26 L 704 28 L 706 63 L 707 64 L 707 75 L 708 76 L 708 87 L 709 88 Q 708 94 710 94 L 734 94 L 735 75 L 736 74 L 736 63 L 737 62 L 737 51 L 738 50 L 738 39 L 739 38 L 739 28 L 740 27 L 704 26 Z M 260 49 Q 248 51 240 57 Q 227 66 223 84 L 223 100 Q 225 110 231 118 Q 241 131 262 134 L 282 134 L 287 133 Q 299 129 307 121 L 292 104 L 280 111 Q 264 113 258 107 L 253 99 L 312 99 L 313 98 L 312 81 L 305 66 Q 298 55 286 51 L 278 49 L 260 49 Z M 357 49 Q 343 52 335 59 Q 323 68 320 85 Q 319 105 327 116 L 338 126 L 348 131 L 360 134 L 379 134 L 384 133 Q 396 130 404 122 L 404 120 L 390 105 L 377 111 Q 364 113 358 109 L 351 102 L 352 99 L 410 99 L 410 83 Q 408 72 402 65 Q 395 55 383 51 L 375 49 L 357 49 Z M 646 49 L 634 54 L 631 56 Q 632 50 631 50 L 602 50 L 602 162 L 603 162 L 632 162 L 633 127 L 636 130 L 646 134 L 662 134 L 667 133 L 676 129 L 684 123 L 693 109 L 695 101 Q 697 73 684 61 Q 677 53 667 50 Q 658 47 646 49 Z M 422 78 L 422 101 L 468 101 L 468 78 L 422 78 Z M 718 102 L 709 106 L 706 109 L 703 117 Q 703 123 706 128 L 716 134 L 727 134 L 735 130 L 738 126 L 740 118 L 737 109 Q 732 100 718 102 Z " /><path fill="rgb(255,255,255)" stroke="rgb(255,255,255)" stroke-width="1" opacity="1" d="M 264.5 70 Q 277.8 68.8 282 76.5 L 284 83 L 252.5 83 L 252 81.5 L 256 74 L 264.5 70 Z " /><path fill="rgb(255,255,255)" stroke="rgb(255,255,255)" stroke-width="1" opacity="1" d="M 361.5 70 Q 375.7 68.8 380 77.5 L 382 82.5 L 350 83 Q 350.5 76.4 355.5 73 L 361.5 70 Z " /><path fill="rgb(255,255,255)" stroke="rgb(255,255,255)" stroke-width="1" opacity="1" d="M 646.5 72 Q 657.5 73 662 80.5 Q 665.9 86.6 664 98.5 L 658.5 107 L 653.5 110 Q 648.8 108.7 647.5 111 L 642.5 110 L 636 105.5 Q 630 99.5 632 85.5 L 636 77 L 646.5 72 Z " /><path fill="rgb(82,144,250)" stroke="rgb(82,144,250)" stroke-width="1" opacity="1" d="M 122 21 L 150 21 L 150 57.5 L 151.5 58 Q 160.6 47.1 183.5 50 Q 195.5 53 202 61.5 L 207 71.5 L 208 82.5 L 209 83.5 L 209 132 L 181 132 L 181 86.5 L 179 79.5 L 173.5 74 L 162.5 73 L 154 78.5 L 150 88.5 L 150 132 L 122.5 132 L 122 131.5 L 122 21 Z " /><path fill="rgb(82,144,250)" stroke="rgb(82,144,250)" stroke-width="1" opacity="1" d="M 484 27 L 513 27 L 513 84.5 L 514 85.5 L 515 97.5 L 519 105 L 525.5 109 L 538.5 110 Q 545.5 108.5 549 103.5 L 552 98.5 L 554 90.5 L 554 27 L 583 27 L 583 93.5 L 581 103.5 L 576 114.5 L 566.5 125 Q 552 137 522.5 134 Q 501.9 130.6 492 116.5 L 486 104.5 L 484 95.5 L 484 27 Z " /><path fill="rgb(82,144,250)" stroke="rgb(82,144,250)" stroke-width="1" opacity="1" d="M 704 27 L 737.5 27 Q 738.6 27.1 738 32.5 L 737 33.5 L 737 43.5 L 736 44.5 L 733 90.5 L 732 94 L 709 94 L 709 82.5 L 708 81.5 L 708 70.5 L 707 69.5 L 707 58.5 L 706 57.5 L 706 45.5 L 705 44.5 L 705 33.5 L 704 27 Z " /><path fill="rgb(82,144,250)" stroke="rgb(82,144,250)" stroke-width="1" opacity="1" d="M 265.5 49 L 278.5 50 L 285.5 52 Q 297.1 56.4 304 65.5 L 311 80.5 L 312 96.5 L 310.5 98 L 253.5 98 L 252 99.5 Q 253.5 106 258.5 109 Q 265 113.9 278.5 112 L 291.5 106 L 306 120.5 L 301.5 125 L 290.5 131 L 270.5 134 L 269.5 133 L 260.5 133 L 249.5 130 Q 238.7 125.8 232 117.5 L 226 107.5 L 223 90.5 L 224 89.5 L 225 78.5 L 229 69.5 L 239.5 58 L 250.5 52 L 265.5 49 Z M 266 69 L 260 71 Q 253 75 251 84 L 285 84 Q 286 78 282 76 Q 277 69 266 69 Z " /><path fill="rgb(82,144,250)" stroke="rgb(82,144,250)" stroke-width="1" opacity="1" d="M 361.5 49 L 369.5 49 L 380.5 51 L 397 60 L 404 69.5 L 408 79.5 L 409 99 L 349 99.5 L 353 107 L 364.5 112 L 375.5 112 Q 383.7 110.2 388.5 105 L 403 120.5 Q 398.3 126.8 390.5 130 L 380.5 133 L 365.5 134 L 364.5 133 L 356.5 133 L 346.5 130 Q 336.8 125.8 330 118.5 L 322 103.5 Q 319.4 95.6 321 83.5 Q 324 68 334.5 60 L 347.5 52 L 361.5 49 Z M 364 69 L 356 72 L 349 81 L 350 84 L 382 84 L 380 77 Q 376 69 364 69 Z " /><path fill="rgb(82,144,250)" stroke="rgb(82,144,250)" stroke-width="1" opacity="1" d="M 649.5 49 L 659.5 49 L 667.5 51 Q 678.3 55.2 685 63.5 L 693 79.5 L 694 97.5 L 689 113.5 L 678.5 126 L 663.5 133 L 650.5 134 L 641.5 132 L 631 126 L 631 162 L 602 162 L 602 51.5 L 603.5 50 L 628.5 50 L 629 50.5 L 629 57.5 L 630.5 58 L 640.5 51 L 649.5 49 Z M 644 72 L 639 74 L 633 80 L 630 90 Q 630 98 633 104 Q 636 109 644 111 Q 652 112 657 109 Q 663 105 665 96 L 665 87 L 660 76 L 652 72 L 644 72 Z " /><path fill="rgb(82,144,250)" stroke="rgb(82,144,250)" stroke-width="1" opacity="1" d="M 423 78 L 466 78 L 466 100 L 423 100 L 423 78 Z " /><path fill="rgb(82,144,250)" stroke="rgb(82,144,250)" stroke-width="1" opacity="1" d="M 720.5 102 L 727.5 103 L 735 108.5 Q 739.2 112.3 738 121.5 L 731.5 131 Q 727.1 135.1 717.5 134 Q 709.9 132.2 706 126.5 Q 702.7 122.8 704 114.5 Q 705.5 108 710.5 105 L 720.5 102 Z " /><path fill="rgb(175,204,253)" stroke="rgb(175,204,253)" stroke-width="1" opacity="1" d="M 122.5 20 L 151 20 L 151 56.5 L 153 56.5 L 150 58 L 150 21 L 122.5 21 L 122.5 20 Z " /><path fill="rgb(175,204,253)" stroke="rgb(175,204,253)" stroke-width="1" opacity="1" d="M 60.5 24 L 76.5 25 L 90.5 29 L 106 39 L 110 44.5 L 91.5 61 L 89.5 61 Q 82 49 62.5 49 Q 50.8 50.9 44 57 L 39 64.5 L 37 70.5 L 36 83.5 L 39 94.5 L 48.5 105 Q 55.1 109.9 66.5 110 L 78.5 107 L 91.5 98 L 109 113.5 L 109 115.5 L 100.5 124 Q 92.8 130.3 81.5 133 L 61.5 135 L 40.5 131 Q 25.7 125.3 17 113.5 L 7 93.5 L 6 88.5 L 6 71.5 Q 10.3 47.8 26.5 36 L 40.5 28 L 60.5 24 Z " /><path fill="rgb(175,204,253)" stroke="rgb(175,204,253)" stroke-width="1" opacity="1" d="M 483 26 L 514 26 L 514 84.5 L 513 84.5 L 513 27 L 484 27 L 483.5 90 L 483 26 Z " /><path fill="rgb(175,204,253)" stroke="rgb(175,204,253)" stroke-width="1" opacity="1" d="M 554.5 26 L 582.5 26 L 584 27.5 L 583.5 88 L 583 27 L 554 27 L 554 90.5 L 553 90.5 L 553 27.5 L 554.5 26 Z " /><path fill="rgb(175,204,253)" stroke="rgb(175,204,253)" stroke-width="1" opacity="1" d="M 704.5 26 L 738 26.5 L 704.5 27 L 704.5 26 Z " /><path fill="rgb(175,204,253)" stroke="rgb(175,204,253)" stroke-width="1" opacity="1" d="M 704.5 33 L 705 37.5 L 704 37.5 L 704.5 33 Z " /><path fill="rgb(175,204,253)" stroke="rgb(175,204,253)" stroke-width="1" opacity="1" d="M 737.5 33 L 738 37.5 L 737 37.5 L 737.5 33 Z " /><path fill="rgb(175,204,253)" stroke="rgb(175,204,253)" stroke-width="1" opacity="1" d="M 736.5 44 L 737 48.5 L 736 48.5 L 736.5 44 Z " /><path fill="rgb(175,204,253)" stroke="rgb(175,204,253)" stroke-width="1" opacity="1" d="M 705.5 45 L 706 49.5 L 705 49.5 L 705.5 45 Z " /><path fill="rgb(175,204,253)" stroke="rgb(175,204,253)" stroke-width="1" opacity="1" d="M 168.5 49 L 183 49.5 L 168.5 50 L 168.5 49 Z " /><path fill="rgb(175,204,253)" stroke="rgb(175,204,253)" stroke-width="1" opacity="1" d="M 260.5 49 L 265 49.5 L 260.5 50 L 260.5 49 Z " /><path fill="rgb(175,204,253)" stroke="rgb(175,204,253)" stroke-width="1" opacity="1" d="M 270.5 49 L 275 49.5 L 270.5 50 L 270.5 49 Z " /><path fill="rgb(175,204,253)" stroke="rgb(175,204,253)" stroke-width="1" opacity="1" d="M 357.5 49 L 361 49.5 L 357.5 50 L 357.5 49 Z " /><path fill="rgb(175,204,253)" stroke="rgb(175,204,253)" stroke-width="1" opacity="1" d="M 370.5 49 L 373 49.5 L 370.5 50 L 370.5 49 Z " /><path fill="rgb(175,204,253)" stroke="rgb(175,204,253)" stroke-width="1" opacity="1" d="M 646.5 49 L 649 49.5 L 646.5 50 L 646.5 49 Z " /><path fill="rgb(175,204,253)" stroke="rgb(175,204,253)" stroke-width="1" opacity="1" d="M 184.5 50 L 187 50.5 L 184.5 51 L 184.5 50 Z " /><path fill="rgb(175,204,253)" stroke="rgb(175,204,253)" stroke-width="1" opacity="1" d="M 629.5 50 L 630.5 57 L 633 55.5 L 629 58 L 629.5 50 Z " /><path fill="rgb(175,204,253)" stroke="rgb(175,204,253)" stroke-width="1" opacity="1" d="M 188.5 51 Q 198.3 53.7 203 61.5 L 205 65.5 L 204 65.5 L 196.5 56 L 188.5 52 L 188.5 51 Z " /><path fill="rgb(175,204,253)" stroke="rgb(175,204,253)" stroke-width="1" opacity="1" d="M 340.5 55 L 339.5 57 L 340.5 55 Z " /><path fill="rgb(175,204,253)" stroke="rgb(175,204,253)" stroke-width="1" opacity="1" d="M 294.5 56 L 295.5 58 L 294.5 56 Z " /><path fill="rgb(175,204,253)" stroke="rgb(175,204,253)" stroke-width="1" opacity="1" d="M 677.5 56 L 678.5 58 L 677.5 56 Z " /><path fill="rgb(175,204,253)" stroke="rgb(175,204,253)" stroke-width="1" opacity="1" d="M 735.5 56 L 736 60.5 L 735 60.5 L 735.5 56 Z " /><path fill="rgb(175,204,253)" stroke="rgb(175,204,253)" stroke-width="1" opacity="1" d="M 337.5 57 L 335.5 60 L 337.5 57 Z " /><path fill="rgb(175,204,253)" stroke="rgb(175,204,253)" stroke-width="1" opacity="1" d="M 394.5 58 L 395.5 60 L 394.5 58 Z " /><path fill="rgb(175,204,253)" stroke="rgb(175,204,253)" stroke-width="1" opacity="1" d="M 706.5 58 L 707 61.5 L 706 61.5 L 706.5 58 Z " /><path fill="rgb(175,204,253)" stroke="rgb(175,204,253)" stroke-width="1" opacity="1" d="M 298.5 59 L 301.5 63 L 298.5 59 Z " /><path fill="rgb(175,204,253)" stroke="rgb(175,204,253)" stroke-width="1" opacity="1" d="M 236.5 60 L 232.5 65 L 236.5 60 Z " /><path fill="rgb(175,204,253)" stroke="rgb(175,204,253)" stroke-width="1" opacity="1" d="M 397.5 61 L 400.5 65 L 397.5 61 Z " /><path fill="rgb(175,204,253)" stroke="rgb(175,204,253)" stroke-width="1" opacity="1" d="M 685.5 64 L 686.5 66 L 685.5 64 Z " /><path fill="rgb(175,204,253)" stroke="rgb(175,204,253)" stroke-width="1" opacity="1" d="M 734.5 68 L 735 72.5 L 734 72.5 L 734.5 68 Z " /><path fill="rgb(175,204,253)" stroke="rgb(175,204,253)" stroke-width="1" opacity="1" d="M 265.5 69 L 272 69.5 L 265.5 70 L 265.5 69 Z " /><path fill="rgb(175,204,253)" stroke="rgb(175,204,253)" stroke-width="1" opacity="1" d="M 363.5 69 L 368 69.5 L 363.5 70 L 363.5 69 Z " /><path fill="rgb(175,204,253)" stroke="rgb(175,204,253)" stroke-width="1" opacity="1" d="M 707.5 70 L 708 73.5 L 707 73.5 L 707.5 70 Z " /><path fill="rgb(175,204,253)" stroke="rgb(175,204,253)" stroke-width="1" opacity="1" d="M 207.5 72 L 208 74.5 L 207 74.5 L 207.5 72 Z " /><path fill="rgb(175,204,253)" stroke="rgb(175,204,253)" stroke-width="1" opacity="1" d="M 278.5 72 L 281.5 76 L 278.5 72 Z " /><path fill="rgb(175,204,253)" stroke="rgb(175,204,253)" stroke-width="1" opacity="1" d="M 162.5 73 L 171 73.5 L 162.5 74 L 162.5 73 Z " /><path fill="rgb(175,204,253)" stroke="rgb(175,204,253)" stroke-width="1" opacity="1" d="M 159.5 74 L 161 74.5 L 158.5 76 L 159.5 74 Z " /><path fill="rgb(175,204,253)" stroke="rgb(175,204,253)" stroke-width="1" opacity="1" d="M 172.5 74 L 175 75.5 L 173.5 75 L 172.5 74 Z " /><path fill="rgb(175,204,253)" stroke="rgb(175,204,253)" stroke-width="1" opacity="1" d="M 638.5 74 L 636.5 77 L 638.5 74 Z " /><path fill="rgb(175,204,253)" stroke="rgb(175,204,253)" stroke-width="1" opacity="1" d="M 156.5 76 L 154.5 79 L 156.5 76 Z " /><path fill="rgb(175,204,253)" stroke="rgb(175,204,253)" stroke-width="1" opacity="1" d="M 208.5 76 L 209 82.5 L 208 82.5 L 208.5 76 Z " /><path fill="rgb(175,204,253)" stroke="rgb(175,204,253)" stroke-width="1" opacity="1" d="M 254.5 76 L 253.5 78 L 254.5 76 Z " /><path fill="rgb(175,204,253)" stroke="rgb(175,204,253)" stroke-width="1" opacity="1" d="M 177.5 78 L 178.5 80 L 177.5 78 Z " /><path fill="rgb(175,204,253)" stroke="rgb(175,204,253)" stroke-width="1" opacity="1" d="M 422.5 78 L 423 100 L 466 100 L 466 78.5 L 467 78.5 L 467 101 L 422 101 L 422.5 78 Z " /><path fill="rgb(175,204,253)" stroke="rgb(175,204,253)" stroke-width="1" opacity="1" d="M 634.5 78 L 633.5 80 L 634.5 78 Z " /><path fill="rgb(175,204,253)" stroke="rgb(175,204,253)" stroke-width="1" opacity="1" d="M 224.5 79 L 225 81.5 L 224 81.5 L 224.5 79 Z " /><path fill="rgb(175,204,253)" stroke="rgb(175,204,253)" stroke-width="1" opacity="1" d="M 733.5 80 L 734 83.5 L 733 83.5 L 733.5 80 Z " /><path fill="rgb(175,204,253)" stroke="rgb(175,204,253)" stroke-width="1" opacity="1" d="M 693.5 82 L 694 84.5 L 693 84.5 L 693.5 82 Z " /><path fill="rgb(175,204,253)" stroke="rgb(175,204,253)" stroke-width="1" opacity="1" d="M 708.5 82 L 709 85.5 L 708 85.5 L 708.5 82 Z " /><path fill="rgb(175,204,253)" stroke="rgb(175,204,253)" stroke-width="1" opacity="1" d="M 251.5 83 L 285 83.5 L 251.5 84 L 251.5 83 Z " /><path fill="rgb(175,204,253)" stroke="rgb(175,204,253)" stroke-width="1" opacity="1" d="M 311.5 83 L 312 85.5 L 311 85.5 L 311.5 83 Z " /><path fill="rgb(175,204,253)" stroke="rgb(175,204,253)" stroke-width="1" opacity="1" d="M 349.5 83 L 382 83.5 L 349.5 84 L 349.5 83 Z " /><path fill="rgb(175,204,253)" stroke="rgb(175,204,253)" stroke-width="1" opacity="1" d="M 223.5 84 L 224 89.5 L 223 89.5 L 223.5 84 Z " /><path fill="rgb(175,204,253)" stroke="rgb(175,204,253)" stroke-width="1" opacity="1" d="M 180.5 86 L 181 132 L 209 132.5 L 181.5 133 L 180 131.5 L 180.5 86 Z " /><path fill="rgb(175,204,253)" stroke="rgb(175,204,253)" stroke-width="1" opacity="1" d="M 320.5 86 L 321 95.5 L 320 95.5 L 320.5 86 Z " /><path fill="rgb(175,204,253)" stroke="rgb(175,204,253)" stroke-width="1" opacity="1" d="M 664.5 86 L 665 89.5 L 664 89.5 L 664.5 86 Z " /><path fill="rgb(175,204,253)" stroke="rgb(175,204,253)" stroke-width="1" opacity="1" d="M 150.5 88 L 151 131.5 L 149.5 133 L 122.5 133 L 122.5 132 L 150 132 L 150.5 88 Z " /><path fill="rgb(175,204,253)" stroke="rgb(175,204,253)" stroke-width="1" opacity="1" d="M 409.5 89 L 410 93.5 L 409 93.5 L 409.5 89 Z " /><path fill="rgb(175,204,253)" stroke="rgb(175,204,253)" stroke-width="1" opacity="1" d="M 630.5 89 L 631 93.5 L 630 93.5 L 630.5 89 Z " /><path fill="rgb(175,204,253)" stroke="rgb(175,204,253)" stroke-width="1" opacity="1" d="M 514.5 91 L 515 93.5 L 514 93.5 L 514.5 91 Z " /><path fill="rgb(175,204,253)" stroke="rgb(175,204,253)" stroke-width="1" opacity="1" d="M 732.5 91 L 733 93.5 L 732 93.5 L 732.5 91 Z " /><path fill="rgb(175,204,253)" stroke="rgb(175,204,253)" stroke-width="1" opacity="1" d="M 223.5 93 L 224 97.5 L 223 97.5 L 223.5 93 Z " /><path fill="rgb(175,204,253)" stroke="rgb(175,204,253)" stroke-width="1" opacity="1" d="M 664.5 93 L 665 95.5 L 664 95.5 L 664.5 93 Z " /><path fill="rgb(175,204,253)" stroke="rgb(175,204,253)" stroke-width="1" opacity="1" d="M 582.5 94 L 583 96.5 L 582 96.5 L 582.5 94 Z " /><path fill="rgb(175,204,253)" stroke="rgb(175,204,253)" stroke-width="1" opacity="1" d="M 311.5 97 L 312 99 L 253.5 99 L 253 100.5 L 252 100.5 L 253.5 98 L 310.5 98 L 311.5 97 Z " /><path fill="rgb(175,204,253)" stroke="rgb(175,204,253)" stroke-width="1" opacity="1" d="M 717.5 102 L 720 102.5 L 717.5 103 L 717.5 102 Z " /><path fill="rgb(175,204,253)" stroke="rgb(175,204,253)" stroke-width="1" opacity="1" d="M 722.5 102 L 725 102.5 L 722.5 103 L 722.5 102 Z " /><path fill="rgb(175,204,253)" stroke="rgb(175,204,253)" stroke-width="1" opacity="1" d="M 548.5 103 L 545.5 107 L 548.5 103 Z " /><path fill="rgb(175,204,253)" stroke="rgb(175,204,253)" stroke-width="1" opacity="1" d="M 633.5 103 L 634.5 105 L 633.5 103 Z " /><path fill="rgb(175,204,253)" stroke="rgb(175,204,253)" stroke-width="1" opacity="1" d="M 254.5 104 L 258.5 109 L 254.5 104 Z " /><path fill="rgb(175,204,253)" stroke="rgb(175,204,253)" stroke-width="1" opacity="1" d="M 730.5 104 L 731.5 106 L 730.5 104 Z " /><path fill="rgb(175,204,253)" stroke="rgb(175,204,253)" stroke-width="1" opacity="1" d="M 290.5 105 L 305 118.5 L 291.5 106 L 290.5 105 Z " /><path fill="rgb(175,204,253)" stroke="rgb(175,204,253)" stroke-width="1" opacity="1" d="M 387.5 105 L 386.5 107 L 387.5 105 Z " /><path fill="rgb(175,204,253)" stroke="rgb(175,204,253)" stroke-width="1" opacity="1" d="M 522.5 106 L 523.5 108 L 522.5 106 Z " /><path fill="rgb(175,204,253)" stroke="rgb(175,204,253)" stroke-width="1" opacity="1" d="M 529.5 109 L 539 109.5 L 529.5 110 L 529.5 109 Z " /><path fill="rgb(175,204,253)" stroke="rgb(175,204,253)" stroke-width="1" opacity="1" d="M 578.5 109 L 579 110.5 L 577 111.5 L 578.5 109 Z " /><path fill="rgb(175,204,253)" stroke="rgb(175,204,253)" stroke-width="1" opacity="1" d="M 643.5 110 L 646 110.5 L 643.5 111 L 643.5 110 Z " /><path fill="rgb(175,204,253)" stroke="rgb(175,204,253)" stroke-width="1" opacity="1" d="M 265.5 111 L 268 111.5 L 265.5 112 L 265.5 111 Z " /><path fill="rgb(175,204,253)" stroke="rgb(175,204,253)" stroke-width="1" opacity="1" d="M 275.5 111 L 279 111.5 L 275.5 112 L 275.5 111 Z " /><path fill="rgb(175,204,253)" stroke="rgb(175,204,253)" stroke-width="1" opacity="1" d="M 372.5 111 L 376 111.5 L 372.5 112 L 372.5 111 Z " /><path fill="rgb(175,204,253)" stroke="rgb(175,204,253)" stroke-width="1" opacity="1" d="M 397.5 114 L 404 120.5 L 400.5 124 L 403 120.5 L 397.5 114 Z " /><path fill="rgb(175,204,253)" stroke="rgb(175,204,253)" stroke-width="1" opacity="1" d="M 688.5 114 L 687.5 116 L 688.5 114 Z " /><path fill="rgb(175,204,253)" stroke="rgb(175,204,253)" stroke-width="1" opacity="1" d="M 230.5 115 L 231.5 117 L 230.5 115 Z " /><path fill="rgb(175,204,253)" stroke="rgb(175,204,253)" stroke-width="1" opacity="1" d="M 575.5 115 L 574.5 117 L 575.5 115 Z " /><path fill="rgb(175,204,253)" stroke="rgb(175,204,253)" stroke-width="1" opacity="1" d="M 328.5 116 L 329.5 118 L 328.5 116 Z " /><path fill="rgb(175,204,253)" stroke="rgb(175,204,253)" stroke-width="1" opacity="1" d="M 686.5 117 L 685.5 119 L 686.5 117 Z " /><path fill="rgb(175,204,253)" stroke="rgb(175,204,253)" stroke-width="1" opacity="1" d="M 493.5 118 L 498.5 124 L 493.5 118 Z " /><path fill="rgb(175,204,253)" stroke="rgb(175,204,253)" stroke-width="1" opacity="1" d="M 573.5 118 L 568.5 124 L 573.5 118 Z " /><path fill="rgb(175,204,253)" stroke="rgb(175,204,253)" stroke-width="1" opacity="1" d="M 334.5 122 L 335.5 124 L 334.5 122 Z " /><path fill="rgb(175,204,253)" stroke="rgb(175,204,253)" stroke-width="1" opacity="1" d="M 238.5 123 L 239.5 125 L 238.5 123 Z " /><path fill="rgb(175,204,253)" stroke="rgb(175,204,253)" stroke-width="1" opacity="1" d="M 501.5 125 L 502.5 127 L 501.5 125 Z " /><path fill="rgb(175,204,253)" stroke="rgb(175,204,253)" stroke-width="1" opacity="1" d="M 565.5 125 L 564.5 127 L 565.5 125 Z " /><path fill="rgb(175,204,253)" stroke="rgb(175,204,253)" stroke-width="1" opacity="1" d="M 632.5 126 L 633.5 128 L 632.5 126 Z " /><path fill="rgb(175,204,253)" stroke="rgb(175,204,253)" stroke-width="1" opacity="1" d="M 257.5 132 L 260 132.5 L 257.5 133 L 257.5 132 Z " /><path fill="rgb(175,204,253)" stroke="rgb(175,204,253)" stroke-width="1" opacity="1" d="M 283.5 132 L 286 132.5 L 283.5 133 L 283.5 132 Z " /><path fill="rgb(175,204,253)" stroke="rgb(175,204,253)" stroke-width="1" opacity="1" d="M 263.5 133 L 270 133.5 L 263.5 134 L 263.5 133 Z " /><path fill="rgb(175,204,253)" stroke="rgb(175,204,253)" stroke-width="1" opacity="1" d="M 272.5 133 L 280 133.5 L 272.5 134 L 272.5 133 Z " /><path fill="rgb(175,204,253)" stroke="rgb(175,204,253)" stroke-width="1" opacity="1" d="M 361.5 133 L 365 133.5 L 361.5 134 L 361.5 133 Z " /><path fill="rgb(175,204,253)" stroke="rgb(175,204,253)" stroke-width="1" opacity="1" d="M 373.5 133 L 377 133.5 L 373.5 134 L 373.5 133 Z " /><path fill="rgb(175,204,253)" stroke="rgb(175,204,253)" stroke-width="1" opacity="1" d="M 519.5 133 L 522 133.5 L 519.5 134 L 519.5 133 Z " /><path fill="rgb(175,204,253)" stroke="rgb(175,204,253)" stroke-width="1" opacity="1" d="M 545.5 133 L 548 133.5 L 545.5 134 L 545.5 133 Z " /><path fill="rgb(175,204,253)" stroke="rgb(175,204,253)" stroke-width="1" opacity="1" d="M 647.5 133 L 650 133.5 L 647.5 134 L 647.5 133 Z " /><path fill="rgb(175,204,253)" stroke="rgb(175,204,253)" stroke-width="1" opacity="1" d="M 658.5 133 L 661 133.5 L 658.5 134 L 658.5 133 Z " /><path fill="rgb(175,204,253)" stroke="rgb(175,204,253)" stroke-width="1" opacity="1" d="M 526.5 134 L 541 134.5 L 526.5 135 L 526.5 134 Z " /></svg>